<svg xmlns="http://www.w3.org/2000/svg" width="48" height="48" viewBox="0 0 47.951 57.691">
  <g id="logo" transform="translate(-378 -536.163)">
    <path id="Union_3" data-name="Union 3" d="M15.475,52.094l-.488.281A10,10,0,0,1,0,43.708V17.293A10,10,0,0,1,14.988,8.625L37.939,21.833a10,10,0,0,1,0,17.334L24.16,47.1C23.124,51.55,21.5,59.854,21.5,59.854Z" transform="translate(380.5 531.5)" fill="none" stroke="#fff" stroke-linecap="round" stroke-linejoin="round" stroke-width="5"/>
    <path id="Path_7" data-name="Path 7" d="M4.9.483A2.332,2.332,0,0,1,3.175-.242a2.387,2.387,0,0,1-.714-1.736,2.423,2.423,0,0,1,.714-1.747A2.315,2.315,0,0,1,4.9-4.46a2.376,2.376,0,0,1,1.758.736,2.4,2.4,0,0,1,.725,1.747A2.368,2.368,0,0,1,6.658-.242,2.394,2.394,0,0,1,4.9.483Zm9.756,0a2.332,2.332,0,0,1-1.725-.725,2.387,2.387,0,0,1-.714-1.736,2.423,2.423,0,0,1,.714-1.747,2.315,2.315,0,0,1,1.725-.736,2.376,2.376,0,0,1,1.758.736,2.4,2.4,0,0,1,.725,1.747,2.368,2.368,0,0,1-.725,1.736A2.394,2.394,0,0,1,14.656.483Zm9.756,0a2.332,2.332,0,0,1-1.725-.725,2.387,2.387,0,0,1-.714-1.736,2.423,2.423,0,0,1,.714-1.747,2.315,2.315,0,0,1,1.725-.736,2.376,2.376,0,0,1,1.758.736,2.4,2.4,0,0,1,.725,1.747,2.368,2.368,0,0,1-.725,1.736A2.394,2.394,0,0,1,24.412.483Z" transform="translate(385.5 565)" fill="#fff"/>
  </g>
</svg>
